<!DOCTYPE svg PUBLIC "-//W3C//DTD SVG 1.1//EN" "http://www.w3.org/Graphics/SVG/1.1/DTD/svg11.dtd">
<!-- Uploaded to: SVG Repo, www.svgrepo.com, Transformed by: SVG Repo Mixer Tools -->
<svg fill="#FFD269" width="800px" height="800px" viewBox="0 0 32.00 32.00" enable-background="new 0 0 32 32" id="Layer_3" version="1.1" xml:space="preserve" xmlns="http://www.w3.org/2000/svg" xmlns:xlink="http://www.w3.org/1999/xlink" stroke="#FFD269" stroke-width="0.00032">
<g id="SVGRepo_bgCarrier" stroke-width="0"/>
<g id="SVGRepo_tracerCarrier" stroke-linecap="round" stroke-linejoin="round"/>
<g id="SVGRepo_iconCarrier"> <g> <path d="M11,2c-0.021,0-0.039,0.011-0.06,0.012c-0.092,0.006-0.18,0.023-0.267,0.054c-0.031,0.011-0.063,0.019-0.093,0.033 c-0.104,0.048-0.202,0.109-0.286,0.193c-0.001,0.001-0.001,0.001-0.002,0.001L4.293,8.293C4.293,8.293,4.292,8.294,4.292,8.295 C4.208,8.378,4.148,8.477,4.099,8.58c-0.014,0.03-0.022,0.062-0.033,0.094C4.036,8.76,4.018,8.847,4.012,8.938 C4.011,8.96,4,8.978,4,9v20c0,0.553,0.448,1,1,1h22c0.552,0,1-0.447,1-1V3c0-0.552-0.448-1-1-1H11z M10,5.414V8H7.414L10,5.414z M26,28H6V10h5c0.552,0,1-0.448,1-1V4h14V28z"/> <path d="M18,13.442c0,1.378,1.122,2.5,2.5,2.5s2.5-1.122,2.5-2.5v-1.108c0.691-0.817,1.5-2.308,1.5-3.392 c0-2.21-1.757-3.942-4-3.942s-4,1.731-4,3.942c0,1.084,0.809,2.575,1.5,3.392V13.442z M21,13.442c0,0.276-0.224,0.5-0.5,0.5 s-0.5-0.224-0.5-0.5v-0.5h1V13.442z M20.5,7c1.122,0,2,0.853,2,1.942c0,0.433-0.488,1.437-0.936,2h-2.127 c-0.448-0.563-0.936-1.567-0.936-2C18.5,7.853,19.378,7,20.5,7z"/> <path d="M10.122,16.536c0.195,0.195,0.451,0.293,0.707,0.293s0.512-0.098,0.707-0.293c0.391-0.391,0.391-1.023,0-1.414 l-0.707-0.707l0.707-0.707c0.391-0.391,0.391-1.023,0-1.414s-1.023-0.391-1.414,0L9.414,13l-0.707-0.707 c-0.391-0.391-1.023-0.391-1.414,0s-0.391,1.023,0,1.414L8,14.414l-0.707,0.707c-0.391,0.391-0.391,1.023,0,1.414 C7.488,16.731,7.744,16.829,8,16.829s0.512-0.098,0.707-0.293l0.707-0.707L10.122,16.536z"/> <path d="M22.707,22.293c-0.391-0.391-1.023-0.391-1.414,0L20.586,23l-0.707-0.707c-0.391-0.391-1.023-0.391-1.414,0 s-0.391,1.023,0,1.414l0.707,0.707l-0.707,0.707c-0.391,0.391-0.391,1.023,0,1.414c0.195,0.195,0.451,0.293,0.707,0.293 s0.512-0.098,0.707-0.293l0.707-0.707l0.707,0.707c0.195,0.195,0.451,0.293,0.707,0.293s0.512-0.098,0.707-0.293 c0.391-0.391,0.391-1.023,0-1.414L22,24.414l0.707-0.707C23.098,23.316,23.098,22.684,22.707,22.293z"/> <path d="M13.684,15.949l0.71,0.237l-0.817,0.408c-0.956,0.478-1.565,1.399-1.632,2.466c-0.066,1.065,0.425,2.056,1.313,2.647 c0.307,0.204,0.465,0.545,0.422,0.911c-0.02,0.176-0.121,0.604-0.703,0.827l-3.414,1.655c-0.497,0.24-0.704,0.839-0.463,1.336 C9.273,26.793,9.629,27,10,27c0.146,0,0.295-0.032,0.436-0.101l3.328-1.618c1.045-0.393,1.774-1.325,1.902-2.434 c0.128-1.11-0.37-2.185-1.3-2.805c-0.416-0.277-0.437-0.693-0.426-0.859c0.011-0.166,0.083-0.577,0.53-0.801L16,17.618V19 c0,0.553,0.448,1,1,1s1-0.447,1-1v-3c0-0.012-0.005-0.023-0.005-0.034c-0.001-0.036-0.012-0.07-0.017-0.105 c-0.013-0.088-0.034-0.172-0.068-0.251c-0.008-0.018-0.006-0.038-0.015-0.056c-0.01-0.019-0.028-0.031-0.038-0.049 c-0.044-0.076-0.098-0.144-0.161-0.206c-0.025-0.024-0.045-0.052-0.072-0.073c-0.089-0.072-0.188-0.132-0.301-0.171 c-0.002-0.001-0.004-0.002-0.006-0.003l-2.999-1c-0.525-0.177-1.09,0.109-1.265,0.632C12.876,15.208,13.16,15.774,13.684,15.949z"/> </g> </g>
</svg>