<!DOCTYPE svg PUBLIC "-//W3C//DTD SVG 1.1//EN" "http://www.w3.org/Graphics/SVG/1.1/DTD/svg11.dtd">
<!-- Uploaded to: SVG Repo, www.svgrepo.com, Transformed by: SVG Repo Mixer Tools -->
<svg height="800px" width="800px" version="1.1" id="Layer_1" xmlns="http://www.w3.org/2000/svg" xmlns:xlink="http://www.w3.org/1999/xlink" viewBox="0 0 512 512" xml:space="preserve" fill="#000000">
<g id="SVGRepo_bgCarrier" stroke-width="0"/>
<g id="SVGRepo_tracerCarrier" stroke-linecap="round" stroke-linejoin="round"/>
<g id="SVGRepo_iconCarrier"> <circle style="fill:#FFD269;" cx="256" cy="256" r="256"/> <path style="fill:#fff9ea;" d="M369.778,429.949l-19.875-85.516c0,0,68.194-65.641,60.536-149.88 c-7.658-84.057-92.444-137.117-178.507-114.142s-100.285,91.897-100.65,103.202c-0.365,11.305,10.211,40.296,2.553,59.989 c-7.658,19.692-35.009,50.689-32.456,59.989c2.553,9.299,26.074,10.758,26.074,10.758s0.365,8.934-2.917,10.758 c-3.1,1.823-1.276,9.299,3.829,13.493s13.675,6.929,13.675,6.929s-9.846,2.188-8.57,9.299c1.276,6.929,4.741,10.576,12.034,10.758 c7.293,0.365,9.299-3.1,10.576,0.729s2.006,4.194,2.006,4.194s-7.293,18.963-0.912,33.003c6.382,14.04,16.228,14.04,27.715,11.122 s33.732-9.299,33.732-9.299l6.017,31.179c6.382,45.219-24.433,68.558-25.162,69.105c18.051,4.011,37.014,6.199,56.342,6.199 c57.071,0,109.584-18.598,152.251-50.142c-4.011-2.006-37.014-30.268-38.473-31.726H369.778z"/> <g> <path style="fill:#ffb70d;" d="M159.179,407.521c6.382,10.029,15.316,9.846,25.709,7.293c11.487-2.917,33.732-9.299,33.732-9.299 l6.017,31.18c2.188,15.499,0,28.262-3.829,38.655l0,0c21.333-30.45,5.652-53.607,8.387-65.094s47.407-22.427,56.707-29.538 c9.299-7.111,16.046-26.986,16.046-26.986s-9.299,14.405-19.328,23.157c-10.029,8.752-87.521,31.544-102.291,36.467 c-14.04,4.741-20.786-4.558-21.333-5.47L159.179,407.521z"/> <path style="fill:#ffb70d;" d="M210.598,87.704c53.607-19.692,117.06-9.117,155.533,30.268 c45.949,46.86,56.524,132.376-23.521,222.632l26.986,89.345l-19.875-85.516c0,0,68.194-65.641,60.536-149.88 c-7.658-84.057-92.444-137.117-178.507-114.142c-7.658,2.006-14.587,4.376-21.151,7.111V87.704z"/> </g> <path style="fill:#5FDC68;" d="M340.057,276.422c86.61-92.627-9.664-246.336-161.003-138.029c0,0,42.12-5.288,59.259,15.681 C261.835,182.883,228.65,263.84,340.057,276.422z"/> <path style="fill:#56BF5D;" d="M213.698,117.607c-11.122,5.47-22.792,12.399-34.644,20.786c0,0,42.12-5.288,59.259,15.681 c6.564,7.84,8.752,19.875,10.758,33.003l0,0c2.37-12.764-0.365-61.994-35.373-69.652V117.607z"/> <path style="fill:#6C7678;" d="M338.598,276.239c-0.547-65.094-24.433-160.091-90.986-154.256 c69.835-9.664,97.915,80.775,99.556,146.234l0.912,18.781l-9.299,2.735l-0.182-13.311V276.239z"/> </g>
</svg>